<?xml version="1.0" encoding="UTF-8" standalone="no"?>
<!-- Created with Inkscape (http://www.inkscape.org/) -->

<svg
   width="618.42297"
   height="1000"
   viewBox="0 0 618.42297 1000"
   version="1.1"
   id="svg1"
   inkscape:version="1.4.2 (ebf0e940d0, 2025-05-08)"
   sodipodi:docname="pin-2.svg"
   inkscape:export-filename="pin-2.png"
   inkscape:export-xdpi="96"
   inkscape:export-ydpi="96"
   xmlns:inkscape="http://www.inkscape.org/namespaces/inkscape"
   xmlns:sodipodi="http://sodipodi.sourceforge.net/DTD/sodipodi-0.dtd"
   xmlns="http://www.w3.org/2000/svg"
   xmlns:svg="http://www.w3.org/2000/svg">
  <sodipodi:namedview
     id="namedview1"
     pagecolor="#ffffff"
     bordercolor="#000000"
     borderopacity="0.25"
     inkscape:showpageshadow="2"
     inkscape:pageopacity="0.0"
     inkscape:pagecheckerboard="0"
     inkscape:deskcolor="#d1d1d1"
     inkscape:document-units="px"
     inkscape:zoom="0.49953305"
     inkscape:cx="456.42626"
     inkscape:cy="469.43841"
     inkscape:window-width="1920"
     inkscape:window-height="1011"
     inkscape:window-x="0"
     inkscape:window-y="0"
     inkscape:window-maximized="1"
     inkscape:current-layer="svg1" />
  <defs
     id="defs1">
    <clipPath
       clipPathUnits="userSpaceOnUse"
       id="clipPath29">
      <path
         id="path29"
         style="display:inline;fill:#000000;stroke-width:46.5754;stroke-linejoin:bevel;stroke-miterlimit:3;stroke-dasharray:54.3381, 38.0365"
         d="M 649.99841,145 H 915 v 85 h 85 V 430 H 649.99841 Z"
         sodipodi:nodetypes="ccccccc" />
    </clipPath>
  </defs>
  <path
     id="path14-9"
     style="display:inline;fill:#215f9a;fill-opacity:1;stroke-width:93.4646;stroke-linejoin:bevel;stroke-miterlimit:3;stroke-dasharray:109.042, 79.0554"
     d="M 309.21151,0 C 138.43878,0 0,158.03539 0,309.21145 c 0,72.36865 26.320939,131.58292 26.320939,131.58292 0,0 199.689261,452.08649 249.952851,539.14542 11.58413,20.06421 32.93772,20.06091 32.93772,20.06091 0,0 21.29017,0 32.79082,-19.91382 50.52566,-87.51303 232.67513,-493.24689 232.67513,-493.24689 0,0 43.74554,-105.25989 43.74554,-177.62854 C 618.423,158.03539 479.98447,0 309.21151,0 Z m 0,174.77169 A 134.43976,134.43976 0 0 1 443.65137,309.21145 134.43976,134.43976 0 0 1 309.21151,443.6512 134.43976,134.43976 0 0 1 174.77188,309.21145 134.43976,134.43976 0 0 1 309.21151,174.77169 Z"
     inkscape:label="Pin 2" />
</svg>
