<?xml version="1.0" encoding="UTF-8" standalone="no"?>
<!-- Created with Inkscape (http://www.inkscape.org/) -->

<svg
   width="2400"
   height="1600"
   viewBox="0 0 635 423.33333"
   version="1.1"
   id="svg1"
   xml:space="preserve"
   inkscape:version="1.4.2 (ebf0e940d0, 2025-05-08)"
   sodipodi:docname="og-image.svg"
   inkscape:export-filename="og-image.png"
   inkscape:export-xdpi="96"
   inkscape:export-ydpi="96"
   xmlns:inkscape="http://www.inkscape.org/namespaces/inkscape"
   xmlns:sodipodi="http://sodipodi.sourceforge.net/DTD/sodipodi-0.dtd"
   xmlns="http://www.w3.org/2000/svg"
   xmlns:svg="http://www.w3.org/2000/svg"><sodipodi:namedview
     id="namedview1"
     pagecolor="#505050"
     bordercolor="#eeeeee"
     borderopacity="1"
     inkscape:showpageshadow="0"
     inkscape:pageopacity="0"
     inkscape:pagecheckerboard="0"
     inkscape:deskcolor="#505050"
     inkscape:document-units="px"
     showguides="true"
     inkscape:zoom="0.25"
     inkscape:cx="1056"
     inkscape:cy="818"
     inkscape:window-width="1920"
     inkscape:window-height="1011"
     inkscape:window-x="0"
     inkscape:window-y="0"
     inkscape:window-maximized="1"
     inkscape:current-layer="layer2"><sodipodi:guide
       position="317.5,451.79406"
       orientation="-1,0"
       id="guide1"
       inkscape:locked="false"
       inkscape:label=""
       inkscape:color="rgb(0,134,229)" /><sodipodi:guide
       position="426.14259,211.66667"
       orientation="0,1"
       id="guide2"
       inkscape:locked="false"
       inkscape:label=""
       inkscape:color="rgb(0,134,229)" /></sodipodi:namedview><defs
     id="defs1"><style
       id="style1">
      .c {
        fill: #9ecd7a;
      }

      .c, .d, .e, .f {
        stroke-width: 0px;
      }

      .d {
        fill: #513024;
      }

      .e {
        fill: #ed6b4d;
      }

      .f {
        fill: #006909;
      }
    </style></defs><g
     inkscape:label="Background"
     inkscape:groupmode="layer"
     id="layer1"
     sodipodi:insensitive="true"><rect
       style="fill:#215f9a;stroke:none;stroke-width:1.0803"
       id="rect1"
       width="635"
       height="423.33334"
       x="0"
       y="0" /></g><g
     inkscape:groupmode="layer"
     id="layer2"
     inkscape:label="Logo"
     sodipodi:insensitive="true"><path
       id="path12"
       clip-path="none"
       style="baseline-shift:baseline;display:inline;overflow:visible;vector-effect:none;fill:#ffffff;fill-rule:nonzero;stroke-width:0.507999;stroke-linejoin:bevel;stroke-miterlimit:3;stroke-dasharray:17.78, 12.446;enable-background:accumulate;stop-color:#000000"
       d="m 527.89435,294.03038 c -1.55622,0.66497 -3.1863,1.26608 -4.87659,1.81768 -3.32611,1.08269 -6.80957,1.94809 -10.4031,2.66997 l 3.50143,17.43174 c 4.10778,-0.8252 8.26623,-1.84683 12.41228,-3.19682 l 0.006,-0.002 c 2.10689,-0.68755 4.22976,-1.46661 6.34702,-2.37133 z" /><path
       id="path19"
       clip-path="none"
       style="baseline-shift:baseline;display:inline;overflow:visible;vector-effect:none;fill:#ffffff;fill-rule:nonzero;stroke-width:0.507999;stroke-linejoin:bevel;stroke-miterlimit:3;stroke-dasharray:17.78, 12.446;enable-background:accumulate;stop-color:#000000"
       d="m 542.036,279.48788 c -0.0281,0.17913 -0.0724,0.4171 -0.13402,0.71239 -0.36023,1.72149 -1.0307,3.38007 -1.94172,4.81309 l -0.01,0.0153 c -0.90026,1.42307 -2.13014,2.7994 -3.6046,4.03425 l 11.41608,13.6307 c 2.70221,-2.26305 5.18894,-4.96289 7.20626,-8.14885 2.1007,-3.30597 3.55078,-6.94105 4.33884,-10.71364 l 9.4e-4,-0.006 c 0.0977,-0.4692 0.20205,-0.99899 0.29469,-1.59146 z" /><path
       id="path18"
       clip-path="none"
       style="baseline-shift:baseline;display:inline;overflow:visible;vector-effect:none;fill:#ffffff;fill-rule:nonzero;stroke-width:0.507999;stroke-linejoin:bevel;stroke-miterlimit:3;stroke-dasharray:17.78, 12.446;enable-background:accumulate;stop-color:#000000"
       d="m 544.91234,247.28644 -10.30584,14.48892 c 0.45264,0.32192 0.89863,0.66157 1.33649,1.01895 1.46651,1.19705 2.70092,2.51023 3.62841,3.86559 l 0.01,0.0115 c 0.89306,1.3002 1.58378,2.77036 2.01612,4.29022 l 17.10134,-4.86569 c -0.96226,-3.38267 -2.46742,-6.58577 -4.45987,-9.48729 -2.0335,-2.96932 -4.46263,-5.47513 -7.05149,-7.58826 -0.73495,-0.59991 -1.49301,-1.17881 -2.27408,-1.73434 z" /><path
       id="path17"
       clip-path="none"
       style="baseline-shift:baseline;display:inline;overflow:visible;vector-effect:none;fill:#ffffff;fill-rule:nonzero;stroke-width:0.507999;stroke-linejoin:bevel;stroke-miterlimit:3;stroke-dasharray:17.78, 12.446;enable-background:accumulate;stop-color:#000000"
       d="m 514.03348,234.81762 -4.41918,17.2224 c 2.02366,0.51934 4.01906,1.05399 5.98189,1.61825 3.44803,0.99306 6.75744,2.06516 9.87425,3.31687 l 6.62583,-16.49908 c -3.89111,-1.56269 -7.77809,-2.80829 -11.58379,-3.90426 l -0.004,-0.002 c -2.1715,-0.62423 -4.33204,-1.20224 -6.47502,-1.75219 z" /><path
       id="path16"
       clip-path="none"
       style="baseline-shift:baseline;display:inline;overflow:visible;vector-effect:none;fill:#ffffff;fill-rule:nonzero;stroke-width:0.507999;stroke-linejoin:bevel;stroke-miterlimit:3;stroke-dasharray:17.78, 12.446;enable-background:accumulate;stop-color:#000000"
       d="m 486.06175,227.04184 -6.64467,16.49116 c 2.00354,0.80728 3.9906,1.50301 5.9412,2.13022 l 0.006,0.002 c 4.15314,1.332 8.24761,2.39648 12.21878,3.39129 l 4.32098,-17.24625 c -3.8543,-0.96554 -7.57211,-1.94142 -11.10356,-3.0738 l -0.006,-0.002 c -1.64792,-0.52999 -3.22944,-1.08692 -4.73274,-1.69266 z" /><path
       id="path15"
       clip-path="none"
       style="baseline-shift:baseline;display:inline;overflow:visible;vector-effect:none;fill:#ffffff;fill-rule:nonzero;stroke-width:0.507999;stroke-linejoin:bevel;stroke-miterlimit:3;stroke-dasharray:17.78, 12.446;enable-background:accumulate;stop-color:#000000"
       d="m 459.5892,210.03575 c -0.76889,2.58889 -1.11882,5.223 -1.11821,7.81646 -0.006,3.30096 0.61211,6.73138 2.12229,10.01909 1.3573,2.97454 3.25583,5.44656 5.36277,7.47416 l 12.32893,-12.81113 c -0.72827,-0.70084 -1.23884,-1.43299 -1.51804,-2.04589 l -0.0153,-0.0338 c -0.29632,-0.64322 -0.5037,-1.55675 -0.50105,-2.57374 v -0.0288 c -5.1e-4,-0.97757 0.13479,-1.9183 0.38299,-2.75431 z" /><path
       id="path13"
       clip-path="none"
       style="baseline-shift:baseline;display:inline;overflow:visible;vector-effect:none;fill:#ffffff;fill-rule:nonzero;stroke-width:0.507999;stroke-linejoin:bevel;stroke-miterlimit:3;stroke-dasharray:17.78, 12.446;enable-background:accumulate;stop-color:#000000"
       d="m 487.5917,185.66068 c -3.47145,1.25063 -6.98734,2.74666 -10.42988,4.64442 l -0.008,0.004 c -2.66199,1.47109 -5.34211,3.21635 -7.87499,5.38065 l 11.55007,13.51755 c 1.40023,-1.19646 3.06399,-2.30718 4.9252,-3.33573 2.40924,-1.32741 5.05424,-2.47031 7.86409,-3.48257 z" /><path
       id="path11"
       clip-path="none"
       style="baseline-shift:baseline;display:inline;overflow:visible;vector-effect:none;fill:#ffffff;fill-rule:nonzero;stroke-width:0.507999;stroke-linejoin:bevel;stroke-miterlimit:3;stroke-dasharray:17.78, 12.446;enable-background:accumulate;stop-color:#000000"
       d="m 519.02618,178.77093 c -0.81404,0.0968 -1.62294,0.19793 -2.42788,0.30361 l -0.004,9.4e-4 c -5.32398,0.70134 -10.68022,1.61112 -16.0258,2.83765 l 3.97568,17.32955 c 4.68694,-1.07543 9.48882,-1.89617 14.36788,-2.539 l 0.004,-9.4e-4 c 0.74009,-0.0972 1.47727,-0.18971 2.2106,-0.27683 z" /><path
       id="path8"
       clip-path="none"
       style="baseline-shift:baseline;display:inline;overflow:visible;vector-effect:none;fill:#ffffff;fill-rule:nonzero;stroke-width:0.507999;stroke-linejoin:bevel;stroke-miterlimit:3;stroke-dasharray:17.78, 12.446;enable-background:accumulate;stop-color:#000000"
       d="m 484.83639,319.45814 0.006,0.0934 c 0.55177,-0.0297 1.10342,-0.0609 1.65596,-0.0934 z" /><path
       id="path7"
       clip-path="none"
       style="baseline-shift:baseline;display:inline;overflow:visible;vector-effect:none;fill:#ffffff;fill-rule:nonzero;stroke-width:0.507999;stroke-linejoin:bevel;stroke-miterlimit:3;stroke-dasharray:17.78, 12.446;enable-background:accumulate;stop-color:#000000"
       d="m 484.83639,319.45814 h 1.66093 c 5.39787,-0.3165 10.83172,-0.76064 16.28477,-1.41286 l 0.0173,-0.002 0.34826,-0.0426 -2.14609,-17.65002 -0.34925,0.0426 c -5.52073,0.65982 -11.11762,1.09849 -16.77095,1.40397 z" /><path
       id="path6"
       clip-path="none"
       style="baseline-shift:baseline;display:inline;overflow:visible;vector-effect:none;fill:#ffffff;fill-rule:nonzero;stroke-width:0.507999;stroke-linejoin:bevel;stroke-miterlimit:3;stroke-dasharray:17.78, 12.446;enable-background:accumulate;stop-color:#000000"
       d="m 454.1282,319.45814 -0.002,0.75408 c 5.98241,0.0135 11.9883,-0.029 18.01514,-0.17568 l -0.0135,-0.57845 z" /><path
       id="path5"
       clip-path="none"
       style="baseline-shift:baseline;display:inline;overflow:visible;vector-effect:none;fill:#ffffff;fill-rule:nonzero;stroke-width:0.507999;stroke-linejoin:bevel;stroke-miterlimit:3;stroke-dasharray:17.78, 12.446;enable-background:accumulate;stop-color:#000000"
       d="m 454.1282,319.45814 h 17.99927 l -0.41871,-17.19659 c -5.82314,0.1417 -11.67113,0.18412 -17.54188,0.17068 z" /><path
       id="path4"
       clip-path="none"
       style="baseline-shift:baseline;display:inline;overflow:visible;vector-effect:none;fill:#ffffff;fill-rule:nonzero;stroke-width:0.507999;stroke-linejoin:bevel;stroke-miterlimit:3;stroke-dasharray:17.78, 12.446;enable-background:accumulate;stop-color:#000000"
       d="m 423.77121,319.45814 -0.008,0.36316 c 5.92378,0.10597 11.86461,0.21425 17.82365,0.28972 l 0.008,-0.65288 z" /><path
       id="path3"
       clip-path="none"
       style="baseline-shift:baseline;display:inline;overflow:visible;vector-effect:none;fill:#ffffff;fill-rule:nonzero;stroke-width:0.507999;stroke-linejoin:bevel;stroke-miterlimit:3;stroke-dasharray:17.78, 12.446;enable-background:accumulate;stop-color:#000000"
       d="m 423.77121,319.45814 h 17.82467 l 0.21728,-17.12514 c -5.89334,-0.0747 -11.80274,-0.18279 -17.73039,-0.28874 z" /><path
       id="path2"
       clip-path="none"
       style="baseline-shift:baseline;display:inline;overflow:visible;vector-effect:none;fill:#ffffff;fill-rule:nonzero;stroke-width:0.507999;stroke-linejoin:bevel;stroke-miterlimit:3;stroke-dasharray:17.78, 12.446;enable-background:accumulate;stop-color:#000000"
       d="m 393.7,319.45814 c 5.86206,3.2e-4 11.74398,0.0643 17.64606,0.15284 l 0.002,-0.15284 z" /><path
       id="path1"
       clip-path="none"
       style="baseline-shift:baseline;display:inline;overflow:visible;vector-effect:none;fill:#ffffff;fill-rule:nonzero;stroke-width:0.507999;stroke-linejoin:bevel;stroke-miterlimit:3;stroke-dasharray:17.78, 12.446;enable-background:accumulate;stop-color:#000000"
       d="m 393.7,319.45814 h 17.64804 l 0.26393,-17.62521 c -5.94985,-0.0893 -11.92063,-0.15437 -17.91197,-0.15475 z" /><path
       id="path14-9"
       style="display:inline;fill:#ffffff;fill-opacity:1;stroke-width:8.82923;stroke-linejoin:bevel;stroke-miterlimit:3;stroke-dasharray:10.3008, 7.46805"
       d="m 542.29001,101.01815 c -16.13225,0 -29.21001,14.929 -29.21,29.21 0,6.83638 2.48642,12.43013 2.48642,12.43013 0,0 18.86387,42.70686 23.61207,50.93096 1.0943,1.89539 3.11151,1.89508 3.11151,1.89508 0,0 2.0112,5.2e-4 3.09761,-1.88118 4.77295,-8.26702 21.97991,-46.59511 21.97991,-46.59511 0,0 4.13247,-9.9435 4.13247,-16.77988 0,-14.281 -13.07775,-29.21 -29.20999,-29.21 z m 0,16.51001 A 12.7,12.7 0 0 1 554.99,130.22815 12.7,12.7 0 0 1 542.29001,142.92816 12.7,12.7 0 0 1 529.59,130.22815 12.7,12.7 0 0 1 542.29001,117.52816 Z"
       inkscape:label="Pin 2" /><path
       id="path14"
       style="display:inline;fill:#ffffff;fill-opacity:1;stroke-width:18.0424;stroke-linejoin:bevel;stroke-miterlimit:3;stroke-dasharray:21.0493, 15.2608"
       d="m 402.59,101.01815 c -32.96588,0 -59.69,30.50707 -59.69,59.69 0,13.96999 5.07999,25.40001 5.07999,25.40001 0,0 38.54923,87.2707 48.25209,104.0765 2.23616,3.87317 6.35792,3.87349 6.35792,3.87349 0,0 4.11011,-4.8e-4 6.33016,-3.84571 9.75345,-16.89347 44.91434,-95.21429 44.91434,-95.21429 0,0 8.4455,-20.32001 8.4455,-34.29 0,-29.18293 -26.72412,-59.69 -59.69,-59.69 z m 0,15.24 a 45.72,45.72 0 0 1 45.72,45.72 45.72,45.72 0 0 1 -45.72,45.72 45.72,45.72 0 0 1 -45.72,-45.72 45.72,45.72 0 0 1 45.72,-45.72 z"
       inkscape:label="Pin 1" /><path
       id="path12-8-0"
       style="baseline-shift:baseline;display:inline;overflow:visible;vector-effect:none;fill:#ffffff;fill-opacity:1;stroke:none;stroke-width:2.07884;stroke-linecap:round;stroke-linejoin:round;stroke-miterlimit:3;stroke-opacity:1;enable-background:accumulate;stop-color:#000000"
       inkscape:label="Carrot"
       d="m 412.66224,126.41815 a 1.6575158,1.6575158 0 0 0 -0.82982,0.222 c -2.68332,1.5492 -4.03638,4.46104 -4.77248,7.49287 -1.77118,-0.95588 -3.67049,-1.62598 -5.59688,-1.63778 -0.70253,-0.004 -1.40868,0.0791 -2.11356,0.26788 a 1.6575158,1.6575158 0 0 0 -1.17252,1.17397 c -0.16858,0.63246 -0.24632,1.26803 -0.24788,1.90293 -0.008,3.00079 1.68654,5.98742 3.53123,8.57088 0.55335,0.77497 1.1194,1.50839 1.68511,2.18909 -0.0678,0.0726 -0.1344,0.14572 -0.19984,0.21955 -2.0599,2.3248 -3.03565,5.15789 -3.67092,7.5287 -0.29491,1.10068 -0.23015,2.23542 -0.14534,3.93866 0.0849,1.70322 0.2759,3.80418 0.5523,6.08889 0.55275,4.56942 1.44194,9.8529 2.53709,14.02518 1.09283,4.16337 2.90297,9.30947 4.6728,13.48481 0.88493,2.08768 1.75371,3.92362 2.55264,5.3087 0.39946,0.69255 0.77326,1.26975 1.18704,1.75533 0.4138,0.48557 0.7945,1.12834 2.02985,1.12834 1.23532,0 1.61518,-0.64166 2.02966,-1.1269 0.4145,-0.48525 0.78943,-1.06234 1.19006,-1.7549 0.80129,-1.38511 1.67282,-3.22132 2.55968,-5.30942 1.77376,-4.17617 3.58449,-9.32316 4.66418,-13.49115 1.07968,-4.16786 1.96958,-9.44812 2.52604,-14.01567 0.27822,-2.28378 0.47204,-4.38424 0.55906,-6.0879 0.087,-1.70366 0.15341,-2.84014 -0.14227,-3.94397 -0.63122,-2.35571 -1.60701,-5.18806 -3.66689,-7.51604 -0.068,-0.0766 -0.1369,-0.15284 -0.20732,-0.22804 0.56688,-0.68189 1.13406,-1.41668 1.68856,-2.19326 2.23499,-3.13005 4.24871,-6.852 3.28333,-10.47381 a 1.6575158,1.6575158 0 0 0 -1.17251,-1.17397 c -0.70486,-0.18893 -1.41102,-0.27218 -2.11355,-0.26788 -1.9695,0.0115 -3.91065,0.71207 -5.71555,1.70224 -0.73223,-3.08312 -2.02386,-6.03424 -4.65195,-7.55618 a 1.6575158,1.6575158 0 0 0 -0.8294,-0.22315 z m -0.0345,3.78775 c 1.20131,1.33493 2.21413,3.92317 2.67881,6.70852 0.37332,2.23774 0.41368,4.59822 0.34139,6.17105 -0.92538,-0.1803 -1.92063,-0.27796 -2.98682,-0.27796 -1.0793,0 -2.08582,0.0995 -3.02078,0.28341 -0.10406,-1.56499 -0.10579,-3.89428 0.23896,-6.1181 0.4308,-2.77924 1.40682,-5.37545 2.74844,-6.76692 z m -11.31918,5.64087 c 1.4888,0.0273 3.32976,0.71339 5.13448,1.78626 -0.30374,2.52608 -0.29785,4.83979 -0.0741,6.56295 -0.20389,0.10233 -0.40261,0.20939 -0.59618,0.32096 -0.55565,-0.63717 -1.10901,-1.32377 -1.61491,-2.03228 -1.64097,-2.2981 -2.75481,-4.84448 -2.8493,-6.63789 z m 22.57822,0 c 0.0434,-0.002 0.084,9.5e-4 0.12691,0 -0.0945,1.79341 -1.20833,4.33979 -2.84928,6.63789 -0.50684,0.70982 -1.06126,1.3977 -1.61793,2.03587 -0.19528,-0.1127 -0.39576,-0.22083 -0.60151,-0.32414 0.20569,-1.7269 0.15705,-4.00811 -0.17088,-6.50077 1.78707,-1.07882 3.61791,-1.78453 5.11275,-1.84885 z m -11.22568,10.27545 c 3.65556,0 5.73185,1.20539 7.23709,2.90653 1.50526,1.70116 2.37093,4.02497 2.9477,6.17753 0.004,0.0153 0.11481,1.32615 0.0336,2.91687 -0.0255,0.5003 -0.0616,1.0451 -0.10733,1.62615 h -4.95477 a 1.65735,1.65735 0 0 0 -1.65735,1.65736 1.65735,1.65735 0 0 0 1.65735,1.65735 h 4.63093 c -0.0344,0.30107 -0.0703,0.60641 -0.10791,0.91528 -0.48668,3.99475 -1.24855,8.59691 -2.13702,12.34352 h -3.85923 a 1.65735,1.65735 0 0 0 -1.65735,1.65735 1.65735,1.65735 0 0 0 1.65735,1.65734 h 2.97648 c -1.04109,3.5395 -2.51136,7.61133 -3.9309,10.95347 -0.85339,2.00926 -1.69448,3.76396 -2.37798,4.94544 -0.1248,0.21579 -0.23706,0.3883 -0.34915,0.56225 -0.11155,-0.17356 -0.22295,-0.34529 -0.34702,-0.56037 -0.68149,-1.18151 -1.52021,-2.9365 -2.37208,-4.94617 -0.38381,-0.90547 -0.77159,-1.86449 -1.15381,-2.852 h 0.55676 a 1.65735,1.65735 0 0 0 1.65737,-1.65736 1.65735,1.65735 0 0 0 -1.65737,-1.65735 h -1.78051 c -0.84096,-2.39021 -1.59496,-4.78633 -2.14087,-6.86605 -0.36436,-1.38814 -0.71019,-2.93498 -1.0288,-4.55125 h 3.1087 a 1.65735,1.65735 0 0 0 1.65734,-1.65736 1.65735,1.65735 0 0 0 -1.65734,-1.65735 h -3.70977 c -0.32325,-1.93885 -0.60202,-3.8907 -0.82278,-5.71571 -0.26909,-2.22434 -0.45321,-4.26541 -0.53245,-5.8558 -0.0313,-0.6266 -0.0328,-1.20971 -0.0231,-1.68728 h 5.08802 a 1.65735,1.65735 0 0 0 1.65734,-1.65736 1.65735,1.65735 0 0 0 -1.65734,-1.65735 h -4.37816 c 0.54432,-1.49387 1.27354,-2.94408 2.29972,-4.10223 1.50311,-1.69641 3.57692,-2.89545 7.23464,-2.89545 z m -0.5349,50.709 c -0.0445,0.036 -0.0751,0.048 -0.0807,0.0457 l -1.5e-4,-1.6e-4 h -1.3e-4 v -1.5e-4 h -1.6e-4 v -1.5e-4 l -1.5e-4,-1.4e-4 v -1.6e-4 l -1.3e-4,-1.5e-4 v -1.4e-4 -1.5e-4 -1.5e-4 l 1.3e-4,-1.6e-4 c 9.4e-4,-0.006 0.0251,-0.0227 0.0812,-0.0441 z m 1.07095,5e-4 c 0.057,0.0221 0.0812,0.0399 0.0814,0.0453 l -1.5e-4,1.3e-4 v 1.5e-4 1.4e-4 1.5e-4 h -1.6e-4 v 1.5e-4 l -1.4e-4,1.6e-4 -1.5e-4,1.3e-4 h -1.3e-4 c -0.004,0.004 -0.0353,-0.01 -0.0807,-0.0461 z" /><path
       id="path10"
       style="display:inline;fill:#ffffff;fill-opacity:1;stroke:none;stroke-width:2.24663;stroke-dasharray:none"
       d="m 385.70533,126.41815 c -1.47319,0 -1.84149,1.10491 -1.84149,1.65735 v 16.75722 c -1.1049,0 -2.39395,-1.47277 -2.39395,-1.47277 v -14.73201 c 0,-0.55244 -0.3683,-1.84149 -1.85171,-1.84149 -1.48343,0 -1.8313,1.28905 -1.8313,1.84149 v 18.41501 c 0,3.68301 3.3147,6.49302 4.0513,6.49302 l -0.7366,42.12259 c -0.0135,0.73659 0.7366,4.41986 4.60375,4.41959 3.86717,-3.6e-4 4.61664,-3.68311 4.60376,-4.41959 l -0.73659,-42.12259 c 0.73659,0 4.05128,-2.81001 4.05128,-6.49302 v -18.41501 c 0,-0.55244 -0.3683,-1.84149 -1.8415,-1.84149 -1.47319,0 -1.8415,1.28905 -1.8415,1.84149 v 14.73201 c 0,0 -1.28906,1.47277 -2.39394,1.47277 V 128.0755 c 0,-0.55244 -0.36831,-1.65735 -1.84151,-1.65735 z m -4.23544,20.6248 c 0,0 1.28905,1.4732 4.23544,1.4732 2.94639,0 4.23545,-1.4732 4.23545,-1.4732 0,0 0,3.68301 -4.23545,3.68301 -4.23544,0 -4.23544,-3.68301 -4.23544,-3.68301 z m 4.23544,7.59792 c 0.36829,0 1.1049,41.01769 1.1049,41.01769 0,0 0,0.73659 -1.1049,0.73659 -1.1049,0 -1.1049,-0.73659 -1.1049,-0.73659 0,0 0.73661,-41.01769 1.1049,-41.01769 z"
       inkscape:label="Fork" /><path
       d="m 63.690409,286.90006 c 0,19.42126 4.760121,35.41524 38.080921,35.41524 24.37177,0 40.93695,-7.23539 40.93695,-34.84403 v -10.66266 c 0,-39.98494 -46.458703,-39.79453 -46.458703,-59.59661 v -5.90254 c 0,-6.85455 2.475264,-8.949 5.902543,-8.949 3.04648,0 6.85457,1.14242 6.85457,9.71063 v 11.23386 h 31.41676 v -12.75709 c 0,-14.66116 -5.90256,-29.89353 -38.65212,-29.89353 -23.229356,0 -38.271328,8.94901 -38.271328,33.70161 v 7.61618 c 0,38.84252 45.316288,35.60564 45.316288,60.54862 v 5.71213 c 0,5.33133 -0.19047,12.37631 -6.47376,12.37631 -4.950515,0 -5.902547,-4.37931 -5.902547,-8.75862 v -21.8965 H 63.690409 Z m 119.383681,-15.42277 5.71214,-63.97592 h 0.38079 l 6.09295,63.97592 z m -36.74807,47.98193 h 35.03443 l 1.71364,-23.99098 h 12.7571 l 1.71364,23.99098 h 35.03443 l -18.65963,-135.9488 h -50.4572 z m 91.39404,0 h 29.70311 v -75.9714 h 0.5712 l 19.80207,75.9714 h 29.70312 V 183.51042 H 287.79644 V 251.104 h -0.3808 l -19.99247,-67.59358 h -29.70311 z"
       id="text1"
       style="font-size:374.812px;font-family:'Impact LT Std';-inkscape-font-specification:'Impact LT Std';display:inline;fill:#ffffff;stroke-width:40.3021"
       aria-label="SAN" /><path
       d="m 82.069033,145.46805 2.886356,-32.32729 h 0.192421 l 3.078797,32.32729 z M 63.500079,169.7135 h 17.703034 l 0.86592,-12.12273 h 6.446208 l 0.865901,12.12273 H 107.08418 L 97.655401,101.01803 H 72.159183 Z m 46.181771,-17.22195 c 0,14.62423 10.77576,18.66514 20.20456,18.66514 10.96817,0 19.62728,-4.32954 19.62728,-21.93636 v -2.79017 h -16.5485 v 9.71743 c 0,3.0788 -0.7697,4.6182 -3.07878,4.6182 -2.59774,0 -3.07879,-1.5394 -3.07879,-4.42575 v -30.7879 c 0,-1.5394 0.19241,-3.27122 2.79015,-3.27122 2.59772,0 2.79015,1.73182 2.79015,3.27122 v 9.23636 h 16.5485 v -4.71439 c 0,-12.12273 -7.60077,-18.1841 -19.05001,-18.1841 -9.4288,0 -20.20456,4.04091 -20.20456,18.66515 z m 42.71823,0 c 0,14.62423 10.77575,18.66514 20.20454,18.66514 9.04396,0 19.05002,-4.04091 19.05002,-18.66514 v -5.77276 h -16.5485 v 10.1023 c 0,2.11667 -0.57727,3.9447 -2.98257,3.9447 -2.11667,0 -2.59774,-1.44319 -2.59774,-3.65607 v -14.72046 h 22.12881 v -11.8341 c 0,-14.14318 -10.77578,-18.66515 -19.05002,-18.66515 -9.42879,0 -20.20454,4.04091 -20.20454,18.66515 z m 17.12575,-26.55456 c 0,-2.21288 0.48107,-3.65607 2.59774,-3.65607 2.4053,0 2.98257,1.82804 2.98257,3.9447 v 6.92728 h -5.58031 z m 24.82276,29.63333 c 0,12.02652 7.02349,15.58637 17.99167,15.58637 12.21895,0 20.30077,-3.84849 20.30077,-16.35605 0,-7.69698 -0.96214,-12.21897 -8.75532,-16.74092 -7.40833,-4.23334 -13.18105,-6.15759 -13.18105,-9.62123 v -2.21287 c 0,-2.59773 1.15453,-3.36743 2.79015,-3.36743 1.6356,0 2.59772,0.96213 2.59772,3.36743 v 5.29168 h 15.875 v -5.29168 c 0,-11.54546 -10.87196,-14.33561 -18.08788,-14.33561 -17.31819,0 -19.05001,10.10228 -19.05001,17.60682 0,17.60683 21.26289,15.87501 21.26289,24.53409 v 2.88638 c 0,2.30909 -1.53938,3.27122 -3.07878,3.27122 -1.82804,0 -2.79016,-1.44319 -2.79016,-3.0788 v -7.69697 h -15.875 z m 40.98644,0 c 0,12.02652 7.02348,15.58637 17.99167,15.58637 12.21894,0 20.30076,-3.84849 20.30076,-16.35605 0,-7.69698 -0.96211,-12.21897 -8.7553,-16.74092 -7.40834,-4.23334 -13.18106,-6.15759 -13.18106,-9.62123 v -2.21287 c 0,-2.59773 1.15455,-3.36743 2.79014,-3.36743 1.63561,0 2.59774,0.96213 2.59774,3.36743 v 5.29168 h 15.875 v -5.29168 c 0,-11.54546 -10.87196,-14.33561 -18.08788,-14.33561 -17.31818,0 -19.05,10.10228 -19.05,17.60682 0,17.60683 21.26288,15.87501 21.26288,24.53409 v 2.88638 c 0,2.30909 -1.5394,3.27122 -3.0788,3.27122 -1.82803,0 -2.79014,-1.44319 -2.79014,-3.0788 v -7.69697 h -15.87501 z m 41.75613,-3.07877 c 0,14.62423 10.77575,18.66514 20.20454,18.66514 9.4288,0 20.20457,-4.04091 20.20457,-18.66514 v -21.93639 c 0,-14.62424 -10.77577,-18.66515 -20.20457,-18.66515 -9.42879,0 -20.20454,4.04091 -20.20454,18.66515 z m 17.12576,-26.45836 c 0,-1.92423 0.96211,-3.75227 3.07878,-3.75227 2.11667,0 3.0788,1.82804 3.0788,3.75227 v 29.82576 c 0,1.92425 -0.96213,3.75229 -3.0788,3.75229 -2.11667,0 -3.07878,-1.82804 -3.07878,-3.75229 z"
       id="text1-9"
       style="font-size:189.394px;font-family:'Impact LT Std';-inkscape-font-specification:'Impact LT Std';display:inline;fill:#ffffff;stroke-width:20.3647"
       aria-label="Acesso" /></g></svg>
